<svg width="41" height="13" viewBox="0 0 41 13" fill="none" xmlns="http://www.w3.org/2000/svg">
<path fill-rule="evenodd" clip-rule="evenodd" d="M25.5457 11.8626C25.8215 11.1539 26.4355 9.56559 26.1435 9.18071H26.1457C25.855 8.795 24.2235 8.99741 23.4897 9.08846L23.4881 9.08865C23.2649 9.11638 23.2305 8.91563 23.4312 8.77033C24.7343 7.82423 26.8691 8.09486 27.117 8.41429C27.365 8.73373 27.0494 10.9454 25.829 12.0013C25.6412 12.1632 25.462 12.0767 25.5457 11.8626ZM16.7777 12.9561C19.6155 12.9561 22.9203 12.03 25.1968 10.2942V10.2975C25.5736 10.0047 25.2505 9.57436 24.8663 9.74295C22.3813 10.8261 19.7139 11.3914 17.017 11.4067C13.2754 11.4067 9.65614 10.3463 6.72811 8.58611C6.47158 8.43194 6.28053 8.70368 6.49519 8.90221C9.31407 11.5304 12.9811 12.9761 16.7777 12.9561Z" fill="#FF9900"/>
<path fill-rule="evenodd" clip-rule="evenodd" d="M35.3343 7.75986H36.5429H36.544C36.6704 7.76231 36.7754 7.65967 36.7801 7.5291V4.06745C36.7801 3.63267 36.8026 3.24003 36.9722 2.84739C37.0886 2.54871 37.3629 2.34762 37.6742 2.33275C38.4472 2.33275 38.4398 3.20815 38.434 3.89587C38.4335 3.95388 38.433 4.01054 38.433 4.06524V7.55794C38.448 7.66999 38.5383 7.75496 38.6477 7.75986H39.867C39.9826 7.76232 40.0822 7.67603 40.0999 7.55794V3.51066C40.0999 2.88843 40.0999 2.02219 39.7833 1.50755C39.4409 0.952974 38.9106 0.75 38.3675 0.75C37.5303 0.75 37.0549 1.16926 36.7157 2.04881H36.6921V1.065C36.6676 0.96215 36.5799 0.888713 36.4774 0.885316H35.3526C35.2337 0.882294 35.1325 0.973912 35.1197 1.09605V7.5291C35.1212 7.65244 35.2151 7.75338 35.3343 7.75986ZM34.1966 4.38581C34.1966 2.35607 33.2231 0.7589 31.4232 0.7589C29.6693 0.7589 28.6958 2.32945 28.6958 4.31815C28.6958 6.30685 29.6575 7.90402 31.4232 7.90402C33.1233 7.90402 34.1966 6.34789 34.1966 4.38581ZM30.484 4.11511C30.484 3.32984 30.5409 2.07207 31.435 2.07207C31.8192 2.07207 32.0908 2.25064 32.2271 2.6943C32.3859 3.20783 32.4085 3.85779 32.4085 4.39906C32.4085 5.22426 32.3731 6.57742 31.4232 6.57742C30.4836 6.57742 30.4839 4.93679 30.484 4.14114L30.484 4.11511ZM7.8046 7.77317H9.01639H9.01746C9.07828 7.77459 9.13717 7.75096 9.18108 7.70746C9.225 7.66395 9.25032 7.60415 9.25144 7.54129V4.13289L9.25142 4.07954C9.25092 3.33843 9.25026 2.35825 10.0886 2.35825C10.8637 2.35825 10.8517 3.21947 10.842 3.91492V3.91495V3.91499V3.91502V3.91506C10.841 3.99002 10.84 4.06306 10.84 4.13289V7.5424C10.842 7.66552 10.9357 7.76615 11.0546 7.77317H12.2696C12.3303 7.77429 12.3889 7.75053 12.4326 7.70706C12.4762 7.66358 12.5014 7.60395 12.5026 7.54129V4.13289L12.5024 4.05186C12.5017 3.69073 12.5007 3.2034 12.6163 2.90063C12.7342 2.59114 13.0191 2.38394 13.3408 2.37378C13.6918 2.37378 13.9634 2.49579 14.0535 2.92836C14.0995 3.13654 14.0936 3.61917 14.0896 3.93921L14.0896 3.93933L14.0896 3.94034C14.0887 4.01541 14.0879 4.08147 14.0879 4.13289V7.5424C14.0894 7.66575 14.1833 7.76668 14.3025 7.77317H15.5143C15.5751 7.77459 15.634 7.75096 15.6779 7.70746C15.7218 7.66395 15.7472 7.60415 15.7483 7.54129V3.48293C15.7483 3.38398 15.7499 3.28286 15.7516 3.18063C15.7615 2.57466 15.7721 1.92963 15.4424 1.4665C15.0427 0.941164 14.4 0.679378 13.7609 0.781664C13.1219 0.883949 12.5859 1.33441 12.3587 1.96007C12.0185 1.14707 11.5323 0.768849 10.7852 0.768849C10.0382 0.768849 9.48328 1.14707 9.18919 1.96007H9.16665V1.12045C9.16026 1.00078 9.06779 0.905221 8.95199 0.898619H7.82177C7.69696 0.897345 7.59401 0.9993 7.58993 1.12821V7.56126C7.60093 7.67702 7.69219 7.76708 7.8046 7.77317ZM5.69553 7.82204C5.61571 7.89358 5.50101 7.90556 5.40895 7.85199C5.06553 7.55673 4.96199 7.39711 4.80299 7.15201C4.77564 7.10984 4.74664 7.06515 4.71451 7.0168C4.04797 7.71778 3.57678 7.92741 2.7149 7.92741C1.69416 7.92741 0.899902 7.27634 0.899902 5.9742C0.899902 4.95712 1.43657 4.26612 2.18789 3.92672C2.74269 3.67514 3.48293 3.59705 4.1229 3.52954L4.12291 3.52954L4.12294 3.52954L4.12297 3.52953L4.12303 3.52953L4.12313 3.52952C4.24204 3.51697 4.35749 3.50479 4.46764 3.49193V3.33C4.46764 3.29916 4.46788 3.26773 4.46813 3.23589V3.23585V3.23581V3.23577V3.23572V3.23568C4.47025 2.95956 4.47261 2.65215 4.3206 2.4205C4.17248 2.1898 3.89126 2.09552 3.64011 2.09552C3.1775 2.09552 2.76534 2.34064 2.66445 2.84752C2.65167 2.96576 2.56362 3.06038 2.44979 3.07822L1.28415 2.94623C1.22599 2.93763 1.17378 2.90476 1.1397 2.85529C1.10563 2.80583 1.09266 2.74409 1.10383 2.68448C1.37324 1.21153 2.66123 0.766762 3.81506 0.766762C4.40539 0.766762 5.17604 0.928697 5.63971 1.3901C6.18403 1.91673 6.18067 2.60614 6.17699 3.35954C6.17668 3.42174 6.17638 3.48438 6.17638 3.54739V5.49838C6.17638 6.02382 6.36503 6.28518 6.56375 6.5605C6.58735 6.5932 6.6111 6.6261 6.63469 6.65966C6.71197 6.77057 6.72914 6.90921 6.63469 6.9924C6.38675 7.20647 5.94669 7.60132 5.70519 7.82426L5.69553 7.82204ZM4.47295 4.76733L4.47299 4.82807C4.47342 5.28941 4.47378 5.68062 4.24648 6.09831C4.05328 6.45102 3.74738 6.66841 3.40607 6.66841C2.94132 6.66841 2.66976 6.30239 2.66976 5.75891C2.66976 4.69191 3.59605 4.49781 4.47295 4.49781V4.76733ZM22.4553 6.55573L22.4554 6.55577C22.479 6.5885 22.5028 6.62144 22.5264 6.65504C22.608 6.77039 22.6251 6.9057 22.521 6.98224C22.2731 7.1963 21.833 7.59227 21.5915 7.81409C21.5112 7.88464 21.3969 7.89614 21.3049 7.84293C20.96 7.5464 20.8579 7.38913 20.6966 7.14084L20.6964 7.14063C20.6695 7.09922 20.641 7.05528 20.6094 7.00775C19.944 7.70873 19.4695 7.91835 18.6109 7.91835C17.5901 7.91835 16.7959 7.26729 16.7959 5.96626C16.7959 4.94806 17.3293 4.25707 18.0892 3.91767C18.6452 3.66513 19.3896 3.58741 20.0315 3.52039L20.0316 3.52038C20.148 3.50823 20.261 3.49642 20.369 3.48399V3.32538C20.369 3.29478 20.3692 3.26361 20.3695 3.23203L20.3695 3.23153C20.3716 2.95531 20.3739 2.64779 20.2209 2.41699C20.077 2.18629 19.7905 2.0909 19.5404 2.0909C19.0778 2.0909 18.6678 2.33603 18.5658 2.8429C18.5527 2.96097 18.4648 3.05541 18.3511 3.07361L17.1758 2.94273C17.1173 2.93442 17.0646 2.9015 17.0302 2.85175C16.9959 2.80199 16.983 2.73981 16.9944 2.67986C17.2649 1.20581 18.5529 0.762148 19.7067 0.762148C20.296 0.762148 21.0667 0.924083 21.5314 1.38549C22.0769 1.90939 22.073 2.59346 22.0688 3.34301C22.0684 3.40911 22.0681 3.47572 22.0681 3.54278V5.49487C22.0681 6.01922 22.2567 6.28049 22.4553 6.55573ZM19.3043 6.66169C19.6445 6.66169 19.9515 6.44429 20.1436 6.09269C20.3717 5.67273 20.3715 5.27967 20.3712 4.81256L20.3712 4.76283V4.4922C19.4943 4.4922 18.568 4.68519 18.568 5.7533C18.568 6.29567 18.8395 6.66169 19.3043 6.66169ZM23.5524 1.1061V2.02225C23.5518 2.0851 23.5761 2.14546 23.6197 2.18927C23.6633 2.23308 23.7224 2.2565 23.7832 2.25406H25.8698L23.4773 5.80333C23.3681 5.99372 23.3165 6.21351 23.3292 6.43443V7.37166C23.3292 7.50698 23.4741 7.66115 23.6125 7.58462C24.9321 6.8776 26.5012 6.87471 27.8232 7.57685C27.9745 7.65782 28.1173 7.50143 28.1173 7.36612V6.3812C28.1132 6.23059 28.0313 6.09383 27.9026 6.02294C27.206 5.6181 26.3957 5.49942 25.6293 5.51828L27.6944 2.47257C27.8865 2.19972 27.9939 2.02669 27.9939 1.8947V1.1061C27.9945 1.04345 27.9703 0.983267 27.9269 0.939494C27.8836 0.895722 27.8248 0.872165 27.7642 0.874287H23.7789C23.7182 0.870766 23.659 0.893977 23.6158 0.938165C23.5726 0.982353 23.5496 1.04338 23.5524 1.1061Z" fill="black"/>
</svg>
