<svg width="155" height="48" viewBox="0 0 155 48" fill="none" xmlns="http://www.w3.org/2000/svg">
<rect x="0.5" y="0.5" width="154" height="47" rx="5.5" stroke="white"/>
<path fill-rule="evenodd" clip-rule="evenodd" d="M38.769 24.5796C38.7908 22.8832 39.6802 21.3161 41.1256 20.4276C40.2096 19.1195 38.7305 18.3198 37.1344 18.2699C35.4552 18.0936 33.8272 19.2747 32.9715 19.2747C32.0992 19.2747 30.7817 18.2874 29.363 18.3166C27.4963 18.3769 25.7982 19.4125 24.8901 21.0444C22.9561 24.3929 24.3987 29.3139 26.2513 32.0205C27.1782 33.3459 28.2615 34.8263 29.6789 34.7738C31.066 34.7163 31.584 33.8893 33.2583 33.8893C34.9171 33.8893 35.4031 34.7738 36.8493 34.7404C38.3377 34.7163 39.2754 33.4092 40.1698 32.0713C40.8358 31.1269 41.3483 30.0832 41.6882 28.9788C39.9205 28.2311 38.7711 26.499 38.769 24.5796Z" fill="white"/>
<path fill-rule="evenodd" clip-rule="evenodd" d="M36.0373 16.4906C36.8489 15.5164 37.2487 14.2642 37.1519 13C35.912 13.1302 34.7668 13.7228 33.9443 14.6596C33.1321 15.5839 32.7207 16.7932 32.8006 18.021C34.057 18.0339 35.25 17.4699 36.0373 16.4906Z" fill="white"/>
<path d="M53.7981 11.6006H55.7931C56.3111 11.6006 56.7684 11.7056 57.1651 11.9156C57.5618 12.1209 57.8698 12.4103 58.0891 12.7836C58.3084 13.1523 58.4181 13.5746 58.4181 14.0506C58.4181 14.5266 58.3084 14.9513 58.0891 15.3246C57.8698 15.6933 57.5618 15.9826 57.1651 16.1926C56.7684 16.3979 56.3111 16.5006 55.7931 16.5006H53.7981V11.6006ZM55.7651 16.0526C56.1944 16.0526 56.5701 15.9686 56.8921 15.8006C57.2141 15.6279 57.4638 15.3923 57.6411 15.0936C57.8184 14.7903 57.9071 14.4426 57.9071 14.0506C57.9071 13.6586 57.8184 13.3133 57.6411 13.0146C57.4638 12.7113 57.2141 12.4756 56.8921 12.3076C56.5701 12.1349 56.1944 12.0486 55.7651 12.0486H54.3161V16.0526H55.7651Z" fill="white"/>
<path d="M61.7233 16.5426C61.238 16.5426 60.797 16.4353 60.4003 16.2206C60.0083 16.0013 59.7003 15.7026 59.4763 15.3246C59.257 14.9466 59.1473 14.5219 59.1473 14.0506C59.1473 13.5793 59.257 13.1546 59.4763 12.7766C59.7003 12.3986 60.0083 12.1023 60.4003 11.8876C60.797 11.6683 61.238 11.5586 61.7233 11.5586C62.2086 11.5586 62.645 11.6659 63.0323 11.8806C63.4243 12.0953 63.7323 12.3939 63.9563 12.7766C64.1803 13.1546 64.2923 13.5793 64.2923 14.0506C64.2923 14.5219 64.1803 14.9489 63.9563 15.3316C63.7323 15.7096 63.4243 16.0059 63.0323 16.2206C62.645 16.4353 62.2086 16.5426 61.7233 16.5426ZM61.7233 16.0806C62.1106 16.0806 62.4606 15.9943 62.7733 15.8216C63.086 15.6443 63.331 15.4016 63.5083 15.0936C63.6856 14.7809 63.7743 14.4333 63.7743 14.0506C63.7743 13.6679 63.6856 13.3226 63.5083 13.0146C63.331 12.7019 63.086 12.4593 62.7733 12.2866C62.4606 12.1093 62.1106 12.0206 61.7233 12.0206C61.336 12.0206 60.9836 12.1093 60.6663 12.2866C60.3536 12.4593 60.1063 12.7019 59.9243 13.0146C59.747 13.3226 59.6583 13.6679 59.6583 14.0506C59.6583 14.4333 59.747 14.7809 59.9243 15.0936C60.1063 15.4016 60.3536 15.6443 60.6663 15.8216C60.9836 15.9943 61.336 16.0806 61.7233 16.0806Z" fill="white"/>
<path d="M72.03 11.6006L70.378 16.5006H69.832L68.397 12.3216L66.955 16.5006H66.416L64.764 11.6006H65.296L66.71 15.8146L68.173 11.6006H68.656L70.098 15.8356L71.533 11.6006H72.03Z" fill="white"/>
<path d="M77.0747 11.6006V16.5006H76.6477L73.4977 12.5246V16.5006H72.9797V11.6006H73.4067L76.5637 15.5766V11.6006H77.0747Z" fill="white"/>
<path d="M78.6741 11.6006H79.1921V16.0526H81.9361V16.5006H78.6741V11.6006Z" fill="white"/>
<path d="M84.8424 16.5426C84.3571 16.5426 83.9161 16.4353 83.5194 16.2206C83.1274 16.0013 82.8194 15.7026 82.5954 15.3246C82.3761 14.9466 82.2664 14.5219 82.2664 14.0506C82.2664 13.5793 82.3761 13.1546 82.5954 12.7766C82.8194 12.3986 83.1274 12.1023 83.5194 11.8876C83.9161 11.6683 84.3571 11.5586 84.8424 11.5586C85.3278 11.5586 85.7641 11.6659 86.1514 11.8806C86.5434 12.0953 86.8514 12.3939 87.0754 12.7766C87.2994 13.1546 87.4114 13.5793 87.4114 14.0506C87.4114 14.5219 87.2994 14.9489 87.0754 15.3316C86.8514 15.7096 86.5434 16.0059 86.1514 16.2206C85.7641 16.4353 85.3278 16.5426 84.8424 16.5426ZM84.8424 16.0806C85.2298 16.0806 85.5798 15.9943 85.8924 15.8216C86.2051 15.6443 86.4501 15.4016 86.6274 15.0936C86.8048 14.7809 86.8934 14.4333 86.8934 14.0506C86.8934 13.6679 86.8048 13.3226 86.6274 13.0146C86.4501 12.7019 86.2051 12.4593 85.8924 12.2866C85.5798 12.1093 85.2298 12.0206 84.8424 12.0206C84.4551 12.0206 84.1028 12.1093 83.7854 12.2866C83.4728 12.4593 83.2254 12.7019 83.0434 13.0146C82.8661 13.3226 82.7774 13.6679 82.7774 14.0506C82.7774 14.4333 82.8661 14.7809 83.0434 15.0936C83.2254 15.4016 83.4728 15.6443 83.7854 15.8216C84.1028 15.9943 84.4551 16.0806 84.8424 16.0806Z" fill="white"/>
<path d="M91.5772 15.1916H88.8471L88.2592 16.5006H87.7201L89.9602 11.6006H90.4711L92.7112 16.5006H92.1651L91.5772 15.1916ZM91.3881 14.7716L90.2122 12.1396L89.0362 14.7716H91.3881Z" fill="white"/>
<path d="M93.5217 11.6006H95.5167C96.0347 11.6006 96.4921 11.7056 96.8887 11.9156C97.2854 12.1209 97.5934 12.4103 97.8127 12.7836C98.0321 13.1523 98.1417 13.5746 98.1417 14.0506C98.1417 14.5266 98.0321 14.9513 97.8127 15.3246C97.5934 15.6933 97.2854 15.9826 96.8887 16.1926C96.4921 16.3979 96.0347 16.5006 95.5167 16.5006H93.5217V11.6006ZM95.4887 16.0526C95.9181 16.0526 96.2937 15.9686 96.6157 15.8006C96.9377 15.6279 97.1874 15.3923 97.3647 15.0936C97.5421 14.7903 97.6307 14.4426 97.6307 14.0506C97.6307 13.6586 97.5421 13.3133 97.3647 13.0146C97.1874 12.7113 96.9377 12.4756 96.6157 12.3076C96.2937 12.1349 95.9181 12.0486 95.4887 12.0486H94.0397V16.0526H95.4887Z" fill="white"/>
<path d="M103.279 16.5426C102.794 16.5426 102.353 16.4353 101.956 16.2206C101.564 16.0013 101.256 15.7026 101.032 15.3246C100.813 14.9466 100.703 14.5219 100.703 14.0506C100.703 13.5793 100.813 13.1546 101.032 12.7766C101.256 12.3986 101.564 12.1023 101.956 11.8876C102.353 11.6683 102.794 11.5586 103.279 11.5586C103.764 11.5586 104.201 11.6659 104.588 11.8806C104.98 12.0953 105.288 12.3939 105.512 12.7766C105.736 13.1546 105.848 13.5793 105.848 14.0506C105.848 14.5219 105.736 14.9489 105.512 15.3316C105.288 15.7096 104.98 16.0059 104.588 16.2206C104.201 16.4353 103.764 16.5426 103.279 16.5426ZM103.279 16.0806C103.666 16.0806 104.016 15.9943 104.329 15.8216C104.642 15.6443 104.887 15.4016 105.064 15.0936C105.241 14.7809 105.33 14.4333 105.33 14.0506C105.33 13.6679 105.241 13.3226 105.064 13.0146C104.887 12.7019 104.642 12.4593 104.329 12.2866C104.016 12.1093 103.666 12.0206 103.279 12.0206C102.892 12.0206 102.539 12.1093 102.222 12.2866C101.909 12.4593 101.662 12.7019 101.48 13.0146C101.303 13.3226 101.214 13.6679 101.214 14.0506C101.214 14.4333 101.303 14.7809 101.48 15.0936C101.662 15.4016 101.909 15.6443 102.222 15.8216C102.539 15.9943 102.892 16.0806 103.279 16.0806Z" fill="white"/>
<path d="M111.104 11.6006V16.5006H110.677L107.527 12.5246V16.5006H107.009V11.6006H107.436L110.593 15.5766V11.6006H111.104Z" fill="white"/>
<path d="M115.487 12.0486H113.765V11.6006H117.727V12.0486H116.005V16.5006H115.487V12.0486Z" fill="white"/>
<path d="M122.65 11.6006V16.5006H122.139V14.2396H119.073V16.5006H118.555V11.6006H119.073V13.7846H122.139V11.6006H122.65Z" fill="white"/>
<path d="M127.714 16.0526V16.5006H124.249V11.6006H127.609V12.0486H124.767V13.7916H127.301V14.2326H124.767V16.0526H127.714Z" fill="white"/>
<path d="M69.9199 25.9766C72.2177 25.9766 73.7324 27.793 73.7324 30.5987C73.7324 33.4122 72.2266 35.2198 69.9541 35.2198C68.7795 35.2812 67.6731 34.666 67.1055 33.6358H67.0625V38.1202H65.2041V26.0713H67.0029V27.5772H67.0371C67.6299 26.5534 68.7375 25.9385 69.9199 25.9766ZM79.8847 25.9766C82.1826 25.9766 83.6973 27.793 83.6973 30.5987C83.6973 33.4122 82.1914 35.2198 79.9189 35.2198C78.7443 35.2812 77.6379 34.666 77.0703 33.6358H77.0273V38.1202H75.1689V26.0713H76.9677V27.5772H77.0019C77.5947 26.5534 78.7023 25.9385 79.8847 25.9766ZM93.2266 22.5C95.8506 22.5 97.6494 23.9717 97.71 26.1143H95.834C95.7217 24.875 94.6972 24.127 93.2002 24.127C91.7031 24.127 90.6787 24.8838 90.6787 25.9854C90.6787 26.8633 91.333 27.3799 92.9336 27.7754L94.3017 28.1113C96.8496 28.7138 97.9082 29.7373 97.9082 31.5537C97.9082 33.8769 96.0576 35.332 93.1142 35.332C90.3603 35.332 88.501 33.9111 88.3808 31.665L90.2832 31.6651C90.4209 32.8965 91.6172 33.7051 93.2519 33.7051C94.8184 33.7051 95.9453 32.8965 95.9453 31.7861C95.9453 30.8223 95.2656 30.2451 93.6562 29.8496L92.0469 29.4619C89.7666 28.9111 88.708 27.8447 88.708 26.1143C88.708 23.9717 90.5752 22.5 93.2266 22.5ZM108.932 25.96C111.557 25.96 113.227 27.75 113.227 30.5987C113.227 33.4551 111.565 35.2374 108.932 35.2374C106.299 35.2374 104.638 33.4551 104.638 30.5987C104.638 27.7501 106.315 25.96 108.932 25.96ZM123.98 25.96C126.485 25.96 128.061 27.6807 128.061 30.4258V31.0625H121.666V31.1749C121.606 31.8489 121.839 32.5161 122.305 33.0067C122.771 33.4974 123.425 33.7642 124.102 33.7393C125.003 33.8238 125.854 33.3059 126.192 32.4659L127.957 32.4659C127.707 34.1094 126.106 35.2374 124.059 35.2374C121.425 35.2374 119.79 33.4727 119.79 30.6416C119.79 27.8018 121.434 25.96 123.98 25.96ZM101.919 23.9288V26.0713H103.641V27.543H101.919V32.5342C101.919 33.3096 102.264 33.6709 103.021 33.6709C103.225 33.6674 103.429 33.653 103.632 33.6279V35.0908C103.292 35.1544 102.946 35.1832 102.6 35.1768C100.767 35.1768 100.052 34.4883 100.052 32.7324V27.543H98.7354V26.0713H100.052V23.9288H101.919ZM59.5664 22.7071L64.0498 35.1251H62.0107L60.875 31.7686H56.1416L55.0049 35.1251H53L57.4834 22.7071H59.5664ZM118.752 25.9766C118.966 25.9759 119.18 25.9991 119.389 26.0459V27.7842C119.118 27.7016 118.836 27.6637 118.554 27.6719C118.007 27.6498 117.479 27.8675 117.106 28.268C116.734 28.6684 116.555 29.2116 116.617 29.7549V35.125H114.759V26.0713H116.531V27.6123H116.574C116.821 26.6203 117.73 25.9376 118.752 25.9766ZM108.932 27.4913C107.426 27.4913 106.531 28.6534 106.531 30.5987C106.531 32.5606 107.426 33.7051 108.932 33.7051C110.438 33.7051 111.333 32.5606 111.333 30.5987C111.333 28.6446 110.438 27.4913 108.932 27.4913ZM69.4297 27.5606C68.0098 27.5606 67.0547 28.7911 67.0547 30.5987C67.0547 32.4229 68.0098 33.6446 69.4297 33.6446C70.875 33.6446 71.8223 32.4483 71.8223 30.5987C71.8223 28.7657 70.875 27.5606 69.4297 27.5606ZM79.3945 27.5606C77.9746 27.5606 77.0195 28.7911 77.0195 30.5987C77.0195 32.4229 77.9746 33.6446 79.3945 33.6446C80.8398 33.6446 81.7871 32.4483 81.7871 30.5987C81.7871 28.7657 80.8398 27.5606 79.3945 27.5606ZM58.5342 24.7725H58.4825L56.6318 30.2198H60.3838L58.5342 24.7725ZM123.98 27.4659C123.369 27.4622 122.782 27.7029 122.349 28.1344C121.916 28.5659 121.673 29.1525 121.675 29.7637H126.201C126.235 29.1581 126.014 28.5658 125.593 28.1296C125.171 27.6934 124.587 27.4528 123.98 27.4659Z" fill="white"/>
</svg>
