<svg width="36" height="16" viewBox="0 0 36 16" fill="none" xmlns="http://www.w3.org/2000/svg">
<path fill-rule="evenodd" clip-rule="evenodd" d="M5.25596 3.65437C5.91401 3.71055 6.57207 3.31735 6.98336 2.81882C7.38779 2.30626 7.65512 1.61816 7.58658 0.916016C7.00392 0.944101 6.28417 1.30922 5.87289 1.82178C5.49587 2.26413 5.1737 2.98032 5.25596 3.65437ZM13.0841 12.698V1.75156H17.0942C19.1643 1.75156 20.6107 3.21202 20.6107 5.34653C20.6107 7.48104 19.1369 8.95554 17.0393 8.95554H14.743V12.698H13.0841ZM7.57969 3.78781C6.99995 3.75363 6.47097 3.9664 6.0437 4.13825C5.76873 4.24885 5.53589 4.3425 5.35875 4.3425C5.15996 4.3425 4.9175 4.24384 4.64528 4.13307C4.28858 3.98792 3.88078 3.82197 3.45312 3.82994C2.47289 3.84398 1.56121 4.41271 1.06081 5.31848C0.0325969 7.13 0.793476 9.81219 1.78742 11.2867C2.2741 12.0169 2.85676 12.8174 3.62449 12.7893C3.96225 12.7762 4.20521 12.6706 4.45666 12.5613C4.74613 12.4355 5.04685 12.3048 5.51641 12.3048C5.96968 12.3048 6.25725 12.4321 6.5333 12.5543C6.79578 12.6705 7.04784 12.7821 7.42203 12.7752C8.21718 12.7612 8.71758 12.045 9.20427 11.3148C9.72948 10.531 9.96029 9.76617 9.99532 9.65008L9.99942 9.63665C9.99858 9.63579 9.99209 9.63275 9.98065 9.62738C9.80507 9.54505 8.46312 8.91577 8.45025 7.2283C8.43732 5.81193 9.51465 5.0943 9.68424 4.98133C9.69456 4.97446 9.70152 4.96982 9.70467 4.96741C9.01919 3.92824 7.94985 3.81589 7.57969 3.78781ZM23.6405 12.7822C24.6824 12.7822 25.649 12.2415 26.0877 11.3849H26.122V12.6979H27.6574V7.2493C27.6574 5.66948 26.4236 4.65138 24.5248 4.65138C22.7631 4.65138 21.4607 5.68352 21.4127 7.10185H22.9071C23.0304 6.4278 23.6405 5.98545 24.4768 5.98545C25.4913 5.98545 26.0603 6.46992 26.0603 7.36164V7.96549L23.9901 8.09187C22.0639 8.21124 21.022 9.0187 21.022 10.423C21.022 11.8413 22.0982 12.7822 23.6405 12.7822ZM24.086 11.4832C23.2017 11.4832 22.6396 11.0479 22.6396 10.3809C22.6396 9.69278 23.1812 9.29256 24.2162 9.22936L26.0602 9.11V9.72789C26.0602 10.753 25.2102 11.4832 24.086 11.4832ZM32.7505 13.1263C32.0856 15.0431 31.3247 15.675 29.707 15.675C29.5836 15.675 29.1723 15.661 29.0763 15.6329V14.3199C29.1791 14.334 29.4328 14.348 29.563 14.348C30.2965 14.348 30.7078 14.032 30.9614 13.2105L31.1122 12.726L28.3017 4.75673H30.036L31.9896 11.2235H32.0239L33.9775 4.75673H35.6638L32.7505 13.1263ZM14.7428 3.18395H16.6553C18.0948 3.18395 18.9174 3.97035 18.9174 5.35357C18.9174 6.73679 18.0948 7.53021 16.6484 7.53021H14.7428V3.18395Z" fill="black"/>
</svg>
