<svg width="88" height="88" viewBox="0 0 88 88" fill="none" xmlns="http://www.w3.org/2000/svg">
<rect width="87" height="88" rx="43.5" fill="#E6007E"/>
<path d="M23.084 24.9688C23.084 23.8777 23.849 23 24.7999 23H28.0531C29.626 23 31.0202 24.05 31.6708 25.625H61.0563C62.9367 25.625 64.3095 27.6758 63.8161 29.7594L60.8847 42.2527C60.277 44.8285 58.2393 46.625 55.9156 46.625H35.2886L35.6747 48.9629C35.832 49.8898 36.5398 50.5625 37.362 50.5625H57.9748C58.9257 50.5625 59.6907 51.4402 59.6907 52.5312C59.6907 53.6223 58.9257 54.5 57.9748 54.5H37.362C34.8882 54.5 32.7647 52.482 32.3072 49.7012L28.6179 27.4707C28.5678 27.159 28.3319 26.9375 28.0531 26.9375H24.7999C23.849 26.9375 23.084 26.0598 23.084 24.9688ZM32.2357 61.0625C32.2357 60.5454 32.3244 60.0334 32.4969 59.5557C32.6694 59.078 32.9222 58.6439 33.2408 58.2783C33.5595 57.9126 33.9378 57.6226 34.3542 57.4247C34.7706 57.2268 35.2169 57.125 35.6675 57.125C36.1182 57.125 36.5645 57.2268 36.9809 57.4247C37.3972 57.6226 37.7756 57.9126 38.0943 58.2783C38.4129 58.6439 38.6657 59.078 38.8382 59.5557C39.0107 60.0334 39.0994 60.5454 39.0994 61.0625C39.0994 61.5796 39.0107 62.0916 38.8382 62.5693C38.6657 63.047 38.4129 63.4811 38.0943 63.8467C37.7756 64.2124 37.3972 64.5024 36.9809 64.7003C36.5645 64.8982 36.1182 65 35.6675 65C35.2169 65 34.7706 64.8982 34.3542 64.7003C33.9378 64.5024 33.5595 64.2124 33.2408 63.8467C32.9222 63.4811 32.6694 63.047 32.4969 62.5693C32.3244 62.0916 32.2357 61.5796 32.2357 61.0625ZM56.2588 57.125C57.169 57.125 58.0419 57.5398 58.6855 58.2783C59.3291 59.0167 59.6907 60.0182 59.6907 61.0625C59.6907 62.1068 59.3291 63.1083 58.6855 63.8467C58.0419 64.5852 57.169 65 56.2588 65C55.3486 65 54.4757 64.5852 53.8321 63.8467C53.1885 63.1083 52.827 62.1068 52.827 61.0625C52.827 60.0182 53.1885 59.0167 53.8321 58.2783C54.4757 57.5398 55.3486 57.125 56.2588 57.125ZM41.1014 36.125C41.1014 37.0273 41.7448 37.7656 42.5313 37.7656H45.6772V41.375C45.6772 42.2773 46.3207 43.0156 47.1072 43.0156C47.8936 43.0156 48.5371 42.2773 48.5371 41.375V37.7656H51.683C52.4695 37.7656 53.1129 37.0273 53.1129 36.125C53.1129 35.2227 52.4695 34.4844 51.683 34.4844H48.5371V30.875C48.5371 29.9727 47.8936 29.2344 47.1072 29.2344C46.3207 29.2344 45.6772 29.9727 45.6772 30.875V34.4844H42.5313C41.7448 34.4844 41.1014 35.2227 41.1014 36.125Z" fill="white"/>
<circle cx="76.825" cy="13.4676" r="11.1746" fill="#38CF71"/>
<path d="M82.4129 9.27734L74.7303 17.6583L71.2383 13.8488" stroke="white" stroke-width="1.5" stroke-linecap="round" stroke-linejoin="round"/>
</svg>
