<svg width="36" height="16" viewBox="0 0 36 16" fill="none" xmlns="http://www.w3.org/2000/svg">
<path fill-rule="evenodd" clip-rule="evenodd" d="M16.4279 12.3228V8.04316H18.6107C19.5052 8.04316 20.2602 7.73988 20.8756 7.14173L21.0233 6.99009C22.1476 5.75168 22.0737 3.82245 20.8756 2.67671C20.2766 2.07014 19.456 1.74158 18.6107 1.75843H15.1067V12.3228H16.4279ZM16.428 6.74579V3.05583H18.644C19.1201 3.05583 19.5715 3.24117 19.908 3.57815C20.6221 4.28581 20.6385 5.46526 19.949 6.19819C19.6125 6.56045 19.1365 6.76264 18.644 6.74579H16.428ZM27.1862 5.65904C26.62 5.12829 25.8486 4.8587 24.8721 4.8587C23.6165 4.8587 22.6728 5.33048 22.0492 6.26561L23.2144 7.01539C23.6412 6.37513 24.2238 6.05499 24.9624 6.05499C25.4301 6.05499 25.8814 6.23191 26.2343 6.55204C26.579 6.85533 26.7759 7.2934 26.7759 7.75676V8.06847C26.2671 7.78203 25.6271 7.63039 24.8393 7.63039C23.9202 7.63039 23.1816 7.84943 22.6318 8.29593C22.082 8.74243 21.803 9.33215 21.803 10.0819C21.7866 10.7643 22.0738 11.413 22.5826 11.8511C23.0996 12.3229 23.756 12.5588 24.5274 12.5588C25.4383 12.5588 26.1605 12.146 26.7103 11.3204H26.7677V12.3229H28.0315V7.86628C28.0315 6.93115 27.7525 6.18979 27.1862 5.65904ZM23.6004 10.9917C23.3295 10.7895 23.1654 10.461 23.1654 10.1071C23.1654 9.71119 23.3459 9.38263 23.6989 9.12147C24.06 8.8603 24.5114 8.72551 25.0449 8.72551C25.7836 8.71709 26.3581 8.88558 26.7685 9.22256C26.7685 9.79543 26.5468 10.2925 26.1119 10.7137C25.7179 11.1181 25.1844 11.3456 24.6263 11.3456C24.257 11.354 23.8958 11.2276 23.6004 10.9917ZM30.8708 15.499L35.2857 5.09461H33.8497L31.8063 10.2842H31.7817L29.6891 5.09461H28.253L31.1498 11.8595L29.5086 15.499H30.8708Z" fill="#3C4043"/>
<path d="M11.8665 7.11671C11.8665 6.7039 11.8337 6.2911 11.768 5.88672H6.19604V8.22033H9.38825C9.25695 8.97011 8.83023 9.64408 8.20656 10.0653V11.5817H10.1104C11.2264 10.5287 11.8665 8.97011 11.8665 7.11671Z" fill="#4285F4"/>
<path d="M6.19625 13.0476C7.78825 13.0476 9.13407 12.5085 10.1106 11.5818L8.20677 10.0653C7.67337 10.436 6.99225 10.6466 6.19625 10.6466C4.65349 10.6466 3.34871 9.57671 2.88096 8.14453H0.919678V9.7115C1.92083 11.7587 3.96417 13.0476 6.19625 13.0476Z" fill="#34A853"/>
<path d="M2.88126 8.14545C2.63504 7.39566 2.63504 6.57848 2.88126 5.82027V4.26172H0.919673C0.0743017 5.97191 0.0743017 7.99381 0.919673 9.704L2.88126 8.14545Z" fill="#FBBC04"/>
<path d="M6.19625 3.31739C7.04149 3.30054 7.8539 3.6291 8.46116 4.22724L10.1516 2.49178C9.07662 1.46398 7.66516 0.899533 6.19625 0.916382C3.96417 0.916382 1.92083 2.21377 0.919678 4.26094L2.88096 5.82791C3.34871 4.38731 4.65349 3.31739 6.19625 3.31739Z" fill="#EA4335"/>
</svg>
