<svg width="155" height="48" viewBox="0 0 155 48" fill="none" xmlns="http://www.w3.org/2000/svg">
<rect x="0.5" y="0.5" width="154" height="47" rx="5.5" stroke="white"/>
<path fill-rule="evenodd" clip-rule="evenodd" d="M21.462 11.3962C21.171 11.7042 21 12.1812 21 12.8002V34.8982C21 35.5172 21.171 35.9942 21.462 36.3022L21.536 36.3742L33.915 23.9952V23.7032L21.536 11.3242L21.462 11.3962Z" fill="white"/>
<mask id="mask0_1362_234" style="mask-type:alpha" maskUnits="userSpaceOnUse" x="34" y="19" width="12" height="10">
<path d="M39.0129 28.2736L34.8879 24.1456V23.8536L39.0149 19.7266L43.9969 22.5566C45.3929 23.3506 45.3929 24.6486 43.9969 25.4416L39.1079 28.2196L39.0129 28.2736Z" fill="white"/>
</mask>
<g mask="url(#mask0_1362_234)">
<path fill-rule="evenodd" clip-rule="evenodd" d="M38.04 28.1232L33.915 23.9952V23.7032L38.042 19.5762L43.024 22.4062C44.42 23.2002 44.42 24.4982 43.024 25.2912L38.135 28.0692L38.04 28.1232Z" fill="white"/>
</g>
<mask id="mask1_1362_234" style="mask-type:alpha" maskUnits="userSpaceOnUse" x="22" y="24" width="18" height="13">
<path d="M39.1078 28.22L34.8878 24L22.4348 36.453C22.8958 36.94 23.6558 37 24.5118 36.514L39.1078 28.22Z" fill="white"/>
</mask>
<g mask="url(#mask1_1362_234)">
<path fill-rule="evenodd" clip-rule="evenodd" d="M38.1349 28.0696L33.9149 23.8496L21.4619 36.3026C21.9229 36.7896 22.6829 36.8496 23.5389 36.3636L38.1349 28.0696Z" fill="white"/>
</g>
<mask id="mask2_1362_234" style="mask-type:alpha" maskUnits="userSpaceOnUse" x="22" y="11" width="18" height="13">
<path d="M39.1078 19.7802L24.5118 11.4862C23.6558 11.0002 22.8958 11.0602 22.4348 11.5472L34.8878 24.0002L39.1078 19.7802Z" fill="white"/>
</mask>
<g mask="url(#mask2_1362_234)">
<path fill-rule="evenodd" clip-rule="evenodd" d="M38.1349 19.6298L23.5389 11.3358C22.6829 10.8498 21.9229 10.9098 21.4619 11.3968L33.9149 23.8498L38.1349 19.6298Z" fill="white"/>
</g>
<path fill-rule="evenodd" clip-rule="evenodd" d="M116.894 34.953H118.76V22.452H116.894V34.953ZM133.701 26.955L131.562 32.375H131.498L129.278 26.955H127.268L130.597 34.53L128.699 38.744H130.646L135.776 26.955H133.701ZM123.119 33.533C122.507 33.533 121.655 33.228 121.655 32.472C121.655 31.507 122.717 31.137 123.633 31.137C124.454 31.137 124.839 31.314 125.338 31.555C125.193 32.713 124.196 33.533 123.119 33.533ZM123.344 26.682C121.993 26.682 120.594 27.277 120.015 28.596L121.671 29.287C122.025 28.596 122.684 28.37 123.376 28.37C124.341 28.37 125.322 28.949 125.338 29.979V30.107C125 29.914 124.277 29.625 123.392 29.625C121.607 29.625 119.789 30.606 119.789 32.439C119.789 34.112 121.253 35.19 122.893 35.19C124.148 35.19 124.839 34.627 125.274 33.967H125.338V34.932H127.139V30.14C127.139 27.92 125.483 26.682 123.344 26.682ZM111.812 28.477H109.158V24.192H111.812C113.207 24.192 113.999 25.347 113.999 26.334C113.999 27.303 113.207 28.477 111.812 28.477ZM111.764 22.452H107.293V34.953H109.158V30.217H111.764C113.832 30.217 115.865 28.719 115.865 26.334C115.865 23.949 113.832 22.452 111.764 22.452ZM87.383 33.535C86.094 33.535 85.015 32.456 85.015 30.974C85.015 29.476 86.094 28.38 87.383 28.38C88.656 28.38 89.654 29.476 89.654 30.974C89.654 32.456 88.656 33.535 87.383 33.535ZM89.525 27.655H89.461C89.042 27.156 88.237 26.705 87.222 26.705C85.095 26.705 83.146 28.573 83.146 30.974C83.146 33.358 85.095 35.211 87.222 35.211C88.237 35.211 89.042 34.76 89.461 34.244H89.525V34.856C89.525 36.484 88.656 37.354 87.254 37.354C86.11 37.354 85.401 36.532 85.111 35.839L83.484 36.516C83.951 37.644 85.192 39.029 87.254 39.029C89.445 39.029 91.298 37.74 91.298 34.599V26.962H89.525V27.655ZM92.587 34.953H94.456V22.451H92.587V34.953ZM97.21 30.829C97.162 29.186 98.483 28.348 99.433 28.348C100.175 28.348 100.803 28.718 101.012 29.25L97.21 30.829ZM103.01 29.411C102.656 28.461 101.576 26.705 99.369 26.705C97.178 26.705 95.358 28.428 95.358 30.958C95.358 33.342 97.162 35.211 99.578 35.211C101.528 35.211 102.656 34.019 103.123 33.326L101.673 32.359C101.19 33.068 100.529 33.535 99.578 33.535C98.628 33.535 97.951 33.1 97.516 32.247L103.203 29.895L103.01 29.411ZM57.702 28.01V29.814H62.019C61.89 30.829 61.552 31.57 61.037 32.086C60.408 32.714 59.425 33.406 57.702 33.406C55.044 33.406 52.965 31.264 52.965 28.606C52.965 25.947 55.044 23.805 57.702 23.805C59.136 23.805 60.183 24.369 60.956 25.094L62.229 23.821C61.149 22.79 59.716 22 57.702 22C54.061 22 51 24.965 51 28.606C51 32.247 54.061 35.211 57.702 35.211C59.667 35.211 61.149 34.567 62.309 33.358C63.501 32.166 63.872 30.491 63.872 29.137C63.872 28.718 63.84 28.332 63.775 28.01H57.702ZM68.781 33.535C67.492 33.535 66.38 32.472 66.38 30.958C66.38 29.427 67.492 28.38 68.781 28.38C70.069 28.38 71.181 29.427 71.181 30.958C71.181 32.472 70.069 33.535 68.781 33.535ZM68.781 26.705C66.428 26.705 64.511 28.493 64.511 30.958C64.511 33.406 66.428 35.211 68.781 35.211C71.133 35.211 73.05 33.406 73.05 30.958C73.05 28.493 71.133 26.705 68.781 26.705ZM78.094 33.535C76.805 33.535 75.693 32.472 75.693 30.958C75.693 29.427 76.805 28.38 78.094 28.38C79.383 28.38 80.494 29.427 80.494 30.958C80.494 32.472 79.383 33.535 78.094 33.535ZM78.094 26.705C75.742 26.705 73.825 28.493 73.825 30.958C73.825 33.406 75.742 35.211 78.094 35.211C80.446 35.211 82.363 33.406 82.363 30.958C82.363 28.493 80.446 26.705 78.094 26.705Z" fill="white"/>
<path d="M55.249 13.5506H55.746V15.4196C55.5173 15.6203 55.2467 15.7743 54.934 15.8816C54.6213 15.9889 54.2923 16.0426 53.947 16.0426C53.457 16.0426 53.016 15.9353 52.624 15.7206C52.232 15.5059 51.924 15.2096 51.7 14.8316C51.476 14.4489 51.364 14.0219 51.364 13.5506C51.364 13.0793 51.476 12.6546 51.7 12.2766C51.924 11.8939 52.232 11.5953 52.624 11.3806C53.016 11.1659 53.4593 11.0586 53.954 11.0586C54.3273 11.0586 54.6703 11.1193 54.983 11.2406C55.2957 11.3573 55.5593 11.5323 55.774 11.7656L55.452 12.0946C55.0647 11.7119 54.5723 11.5206 53.975 11.5206C53.5783 11.5206 53.219 11.6093 52.897 11.7866C52.5797 11.9593 52.33 12.2019 52.148 12.5146C51.966 12.8226 51.875 13.1679 51.875 13.5506C51.875 13.9333 51.966 14.2786 52.148 14.5866C52.33 14.8946 52.5797 15.1373 52.897 15.3146C53.2143 15.4919 53.5713 15.5806 53.968 15.5806C54.472 15.5806 54.899 15.4546 55.249 15.2026V13.5506Z" fill="white"/>
<path d="M60.6771 15.5526V16.0006H57.2121V11.1006H60.5721V11.5486H57.7301V13.2916H60.2641V13.7326H57.7301V15.5526H60.6771Z" fill="white"/>
<path d="M62.8467 11.5486H61.1247V11.1006H65.0867V11.5486H63.3647V16.0006H62.8467V11.5486Z" fill="white"/>
<path d="M67.7463 11.1006H68.2643V16.0006H67.7463V11.1006Z" fill="white"/>
<path d="M70.8106 11.5486H69.0886V11.1006H73.0506V11.5486H71.3286V16.0006H70.8106V11.5486Z" fill="white"/>
<path d="M77.8521 16.0426C77.3668 16.0426 76.9258 15.9353 76.5291 15.7206C76.1371 15.5013 75.8291 15.2026 75.6051 14.8246C75.3858 14.4466 75.2761 14.0219 75.2761 13.5506C75.2761 13.0793 75.3858 12.6546 75.6051 12.2766C75.8291 11.8986 76.1371 11.6023 76.5291 11.3876C76.9258 11.1683 77.3668 11.0586 77.8521 11.0586C78.3375 11.0586 78.7738 11.1659 79.1611 11.3806C79.5531 11.5953 79.8611 11.8939 80.0851 12.2766C80.3091 12.6546 80.4211 13.0793 80.4211 13.5506C80.4211 14.0219 80.3091 14.4489 80.0851 14.8316C79.8611 15.2096 79.5531 15.5059 79.1611 15.7206C78.7738 15.9353 78.3375 16.0426 77.8521 16.0426ZM77.8521 15.5806C78.2395 15.5806 78.5895 15.4943 78.9021 15.3216C79.2148 15.1443 79.4598 14.9016 79.6371 14.5936C79.8145 14.2809 79.9031 13.9333 79.9031 13.5506C79.9031 13.1679 79.8145 12.8226 79.6371 12.5146C79.4598 12.2019 79.2148 11.9593 78.9021 11.7866C78.5895 11.6093 78.2395 11.5206 77.8521 11.5206C77.4648 11.5206 77.1125 11.6093 76.7951 11.7866C76.4825 11.9593 76.2351 12.2019 76.0531 12.5146C75.8758 12.8226 75.7871 13.1679 75.7871 13.5506C75.7871 13.9333 75.8758 14.2809 76.0531 14.5936C76.2351 14.9016 76.4825 15.1443 76.7951 15.3216C77.1125 15.4943 77.4648 15.5806 77.8521 15.5806Z" fill="white"/>
<path d="M85.6772 11.1006V16.0006H85.2502L82.1002 12.0246V16.0006H81.5822V11.1006H82.0092L85.1662 15.0766V11.1006H85.6772Z" fill="white"/>
</svg>
