<svg width="23" height="21" viewBox="0 0 23 21" fill="none" xmlns="http://www.w3.org/2000/svg">
<path d="M16.8988 0.123047H5.92683C2.89564 0.123047 0.429688 2.55813 0.429688 5.55139V15.4635C0.429688 18.4567 2.89564 20.8918 5.92683 20.8918H16.8988C19.9299 20.8918 22.3959 18.4567 22.3959 15.4635V5.55139C22.3959 2.55813 19.9299 0.123047 16.8988 0.123047ZM2.36891 5.55139C2.36891 3.61436 3.96525 2.03799 5.92683 2.03799H16.8988C18.8603 2.03799 20.4567 3.61436 20.4567 5.55139V15.4635C20.4567 17.4005 18.8603 18.9769 16.8988 18.9769H5.92683C3.96525 18.9769 2.36891 17.4005 2.36891 15.4635V5.55139Z" fill="white"/>
<path d="M11.4131 15.5556C14.2318 15.5556 16.5264 13.291 16.5264 10.5063C16.5264 7.7216 14.2331 5.45703 11.4131 5.45703C8.59308 5.45703 6.2998 7.7216 6.2998 10.5063C6.2998 13.291 8.59308 15.5556 11.4131 15.5556ZM11.4131 7.3732C13.1635 7.3732 14.5871 8.77905 14.5871 10.5075C14.5871 12.236 13.1635 13.6419 11.4131 13.6419C9.6627 13.6419 8.23903 12.236 8.23903 10.5075C8.23903 8.77905 9.6627 7.3732 11.4131 7.3732Z" fill="white"/>
<path d="M16.9995 6.27366C17.7586 6.27366 18.3772 5.66396 18.3772 4.9132C18.3772 4.16243 17.7598 3.55273 16.9995 3.55273C16.2392 3.55273 15.6218 4.16243 15.6218 4.9132C15.6218 5.66396 16.2392 6.27366 16.9995 6.27366Z" fill="white"/>
</svg>
