<svg width="21" height="21" viewBox="0 0 21 21" fill="none" xmlns="http://www.w3.org/2000/svg">
<path d="M1.38421 4.63758C0.917109 4.20944 0.684814 3.6795 0.684814 3.04895C0.684814 2.4184 0.918351 1.86514 1.38421 1.43578C1.85131 1.00765 2.45259 0.792969 3.18927 0.792969C3.92595 0.792969 4.50362 1.00765 4.96948 1.43578C5.43658 1.86391 5.66888 2.40246 5.66888 3.04895C5.66888 3.69544 5.43534 4.20944 4.96948 4.63758C4.50238 5.06571 3.9098 5.28039 3.18927 5.28039C2.46874 5.28039 1.85131 5.06571 1.38421 4.63758ZM5.27632 7.09352V20.2197H1.07612V7.09352H5.27632Z" fill="white"/>
<path d="M19.2586 8.39006C20.1742 9.37146 20.6313 10.7184 20.6313 12.4334V19.9877H16.6423V12.9658C16.6423 12.101 16.415 11.4287 15.9616 10.9503C15.5081 10.4718 14.8969 10.2314 14.1317 10.2314C13.3664 10.2314 12.7552 10.4706 12.3018 10.9503C11.8483 11.4287 11.621 12.101 11.621 12.9658V19.9877H7.6084V7.05659H11.621V8.77158C12.0272 8.19991 12.5751 7.74848 13.2633 7.41603C13.9515 7.08359 14.7255 6.91797 15.5864 6.91797C17.1194 6.91797 18.3443 7.40867 19.2586 8.38883V8.39006Z" fill="white"/>
</svg>
