<svg width="24" height="23" viewBox="0 0 24 23" fill="none" xmlns="http://www.w3.org/2000/svg">
<path d="M15.1851 16.6276C10.647 16.6276 6.95486 12.9805 6.95361 8.49916C6.95486 7.3632 7.89155 6.43945 9.03943 6.43945C9.15745 6.43945 9.27421 6.44927 9.38602 6.46889C9.63199 6.50938 9.86555 6.59157 10.0805 6.71547C10.1115 6.73387 10.1326 6.76332 10.1376 6.79767L10.6171 9.78233C10.6233 9.81668 10.6122 9.85226 10.5886 9.87802C10.324 10.1675 9.98605 10.3761 9.60964 10.4803L9.42827 10.5306L9.49658 10.7036C10.1152 12.2591 11.3749 13.5018 12.9514 14.1152L13.1266 14.1839L13.1775 14.0048C13.2831 13.6331 13.4943 13.2994 13.7875 13.0381C13.8086 13.0185 13.8372 13.0087 13.8657 13.0087C13.8719 13.0087 13.8782 13.0087 13.8856 13.0099L16.9081 13.4834C16.9441 13.4896 16.974 13.5092 16.9926 13.5398C17.1168 13.7521 17.2001 13.9839 17.2423 14.2268C17.2622 14.3348 17.2709 14.4489 17.2709 14.5679C17.2709 15.7026 16.3354 16.6263 15.1851 16.6276Z" fill="white"/>
<path d="M23.2322 10.5236C22.9875 7.79287 21.7204 5.25964 19.6644 3.39131C17.5959 1.51194 14.9126 0.476562 12.1062 0.476562C5.94695 0.476562 0.935545 5.42525 0.935545 11.5074C0.935545 13.5487 1.50575 15.5373 2.5853 17.2695L0.177734 22.5322L7.88617 21.7213C9.2266 22.2635 10.6453 22.5383 12.105 22.5383C12.4889 22.5383 12.8827 22.5187 13.2777 22.4782C13.6256 22.4414 13.9771 22.3874 14.3225 22.3187C19.4805 21.2895 23.2459 16.769 23.2757 11.5663V11.5074C23.2757 11.1762 23.2608 10.845 23.231 10.5248L23.2322 10.5236ZM8.18308 19.4114L3.91829 19.8603L5.19164 17.0744L4.93697 16.7371C4.91833 16.7125 4.8997 16.688 4.87858 16.6598C3.77294 15.1521 3.18905 13.3709 3.18905 11.5087C3.18905 6.65322 7.18924 2.70311 12.1062 2.70311C16.7127 2.70311 20.6172 6.25208 20.9936 10.7824C21.0135 11.0253 21.0247 11.2695 21.0247 11.5099C21.0247 11.5786 21.0234 11.6461 21.0222 11.7184C20.9278 15.7802 18.0543 19.2298 14.0343 20.1082C13.7274 20.1756 13.4131 20.2271 13.1001 20.2603C12.7746 20.2971 12.4404 20.3155 12.1087 20.3155C10.9273 20.3155 9.77942 20.0897 8.6949 19.6432C8.5744 19.5954 8.45638 19.5438 8.34581 19.4911L8.18432 19.4138L8.18308 19.4114Z" fill="white"/>
</svg>
