<svg width="23" height="23" viewBox="0 0 23 23" fill="none" xmlns="http://www.w3.org/2000/svg">
<path fill-rule="evenodd" clip-rule="evenodd" d="M2.5697 2.22967L1.56703 4.23502C0.761744 5.84559 0.41964 7.67042 1.00646 9.37279C1.71134 11.4176 3.12065 14.3482 5.8866 17.1141C8.65255 19.8801 11.5831 21.2894 13.6279 21.9943C15.3303 22.5811 17.1551 22.239 18.7657 21.4337L20.8381 20.3975C22.2431 19.695 22.5666 17.833 21.4809 16.6978L19.1949 14.3075C18.3938 13.4698 17.0955 13.357 16.1619 14.0439C15.115 14.8142 13.7152 14.9455 12.6178 14.2489C11.963 13.8333 11.2662 13.3372 10.7719 12.8429C10.1983 12.2693 9.62234 11.4231 9.17248 10.6863C8.59785 9.74514 8.60605 8.57804 9.0992 7.59173L9.40572 6.97869C9.85487 6.08039 9.67881 4.99545 8.96864 4.28528L6.30661 1.62325C5.18045 0.497091 3.28195 0.805178 2.5697 2.22967ZM4.13495 3.0123L3.13228 5.01765C2.46062 6.36097 2.27547 7.68427 2.66092 8.80249C3.30077 10.6587 4.58766 13.3403 7.12404 15.8767C9.66042 18.4131 12.3421 19.7 14.1982 20.3398C15.3165 20.7253 16.6398 20.5401 17.9831 19.8684L20.0555 18.8323C20.4067 18.6566 20.4876 18.1911 20.2162 17.9073L17.9302 15.517C17.7371 15.3151 17.4241 15.2879 17.1991 15.4535C15.6491 16.5939 13.4648 16.8593 11.68 15.7264C10.9926 15.2901 10.1664 14.7123 9.53443 14.0803C8.80776 13.3537 8.14402 12.3601 7.67887 11.5982C6.75336 10.0824 6.80404 8.26894 7.53395 6.80911L7.84047 6.19607C7.95276 5.97149 7.90875 5.70026 7.7312 5.52272L5.06918 2.86069C4.78764 2.57915 4.31301 2.65617 4.13495 3.0123Z" fill="#E6007E"/>
<path d="M16.1248 6.47566C15.3623 5.71324 14.436 5.30269 13.7324 5.40319C13.4135 5.44875 13.118 5.22714 13.0724 4.90821C13.0269 4.58928 13.2485 4.29381 13.5674 4.24825C14.7887 4.07379 16.0622 4.7632 16.9497 5.6507C17.8372 6.53821 18.5266 7.81171 18.3521 9.03304C18.3066 9.35197 18.0111 9.57358 17.6922 9.52801C17.3732 9.48245 17.1516 9.18697 17.1972 8.86805C17.2977 8.16447 16.8872 7.23808 16.1248 6.47566Z" fill="#E6007E"/>
<path d="M13.0318 7.84601C14.1565 7.41942 15.181 8.4439 14.7544 9.56862C14.6401 9.86984 14.7917 10.2067 15.0929 10.3209C15.3941 10.4352 15.7309 10.2836 15.8452 9.98238C16.6285 7.91726 14.6832 5.97188 12.6181 6.75518C12.3168 6.86943 12.1653 7.20625 12.2795 7.50747C12.3938 7.8087 12.7306 7.96027 13.0318 7.84601Z" fill="#E6007E"/>
</svg>
