<svg width="34" height="40" viewBox="0 0 34 40" fill="none" xmlns="http://www.w3.org/2000/svg">
<path fill-rule="evenodd" clip-rule="evenodd" d="M13.5573 2.41774C7.27416 3.96624 2.61453 9.63954 2.61453 16.4007V19C2.61453 22.5303 1.51548 26.9525 0.453458 30.4017C-0.381267 33.1127 1.59688 36 4.43346 36H12.5002C12.5002 36.5253 12.6037 37.0454 12.8047 37.5307C13.0057 38.016 13.3004 38.457 13.6718 38.8284C14.0432 39.1999 14.4842 39.4945 14.9695 39.6955C15.4548 39.8965 15.975 40 16.5002 40C17.0255 40 17.5457 39.8965 18.031 39.6955C18.5163 39.4945 18.9572 39.1999 19.3287 38.8284C19.7001 38.457 19.9947 38.016 20.1958 37.5307C20.3968 37.0454 20.5002 36.5253 20.5002 36H29.1191C31.8001 36 33.747 33.4079 33.1344 30.7979C32.3087 27.2803 31.4145 22.6323 31.4145 19V16.4007C31.4145 9.257 26.2127 3.32774 19.3902 2.19507C19.3578 2.07865 19.3183 1.96406 19.2719 1.85195C19.1211 1.48797 18.9001 1.15726 18.6216 0.87868C18.343 0.600104 18.0123 0.379125 17.6483 0.228361C17.2843 0.0775969 16.8942 0 16.5002 0C16.1063 0 15.7162 0.0775974 15.3522 0.228362C14.9882 0.379126 14.6575 0.600104 14.3789 0.87868C14.1003 1.15726 13.8794 1.48797 13.7286 1.85195C13.6528 2.03489 13.5955 2.22443 13.5573 2.41774ZM5.61453 16.4007V19C5.61453 23.0082 4.39519 27.7946 3.32062 31.2845C3.1941 31.6954 3.27352 32.1398 3.52194 32.4935C3.7631 32.837 4.08945 33 4.43346 33H29.1191C29.7567 33 30.4099 32.3188 30.2138 31.4834C29.3815 27.9375 28.4145 23.0024 28.4145 19V16.4007C28.4145 10.1044 23.3104 5 17.0145 5C10.7187 5 5.61453 10.1044 5.61453 16.4007Z" fill="#363538"/>
</svg>
