<svg width="28" height="22" viewBox="0 0 28 22" fill="none" xmlns="http://www.w3.org/2000/svg">
<path d="M2.59653 20.5567C2.12059 20.5564 1.64441 20.5562 1.16773 20.5563V14.6114C2.67379 14.9097 4.24798 15.016 5.79651 14.7802L5.79651 14.7802L5.80001 14.7796C6.76277 14.626 7.97489 14.1619 8.50663 13.084C8.50578 14.6927 8.50362 16.3014 8.49904 17.9103C8.43966 19.3034 7.16334 20.5272 5.74826 20.5541C4.69718 20.5579 3.64746 20.5573 2.59653 20.5567ZM8.50562 1.44204C8.50438 3.3873 8.50515 5.33195 8.50597 7.27631H8.31064H5.40334H4.90801L4.90337 7.77162C4.8983 8.3119 4.90096 8.84275 4.9036 9.36941C4.90788 10.2243 4.91211 11.0682 4.88315 11.9233C4.82827 12.4325 4.28126 12.8487 3.65427 12.8264L3.64273 12.8259L3.63119 12.8261C3.21029 12.8305 2.52461 12.6714 1.89429 12.4875C1.59556 12.4004 1.3257 12.3127 1.12823 12.246C1.12718 10.5159 1.14157 8.53407 1.15518 6.66033C1.16157 5.78 1.16779 4.92352 1.17216 4.12822C1.21021 2.71686 2.50159 1.46646 3.93412 1.44399C4.97899 1.4408 6.0227 1.44127 7.06741 1.44174C7.54653 1.44196 8.02587 1.44218 8.50562 1.44204Z" fill="url(#paint0_linear_1362_348)" stroke="black"/>
<path d="M26.7065 1.4416C26.874 1.4416 27.0416 1.44159 27.2092 1.44159C27.2166 1.95283 27.2144 2.46994 27.2122 2.99245C27.2104 3.42227 27.2086 3.85575 27.2121 4.29259C27.2113 5.97245 27.2118 7.65183 27.2122 9.33102C27.2124 10.2401 27.2126 11.1491 27.2126 12.0581C27.1148 11.6875 26.9021 11.3723 26.6376 11.1278C26.5061 11.0063 26.36 10.9 26.2048 10.8098C26.7231 10.3412 27.0237 9.62512 26.8124 8.86801C26.6674 8.26132 26.2554 7.85697 25.793 7.61511C25.3358 7.37598 24.8061 7.28014 24.3392 7.28079C23.3162 7.27391 22.2903 7.27494 21.2666 7.27596C20.8022 7.27643 20.3383 7.27689 19.8753 7.27662C19.8757 6.95736 19.8743 6.64105 19.8728 6.32636C19.8693 5.53963 19.8658 4.76302 19.8902 3.97584C20.0062 2.58861 21.3253 1.41666 22.7382 1.4418L22.7382 1.44188L22.7471 1.44188C24.067 1.44168 25.3868 1.44164 26.7065 1.4416ZM27.2126 13.0373C27.2124 14.6409 27.2114 16.2444 27.2085 17.8482C27.1817 19.2617 25.8964 20.5227 24.462 20.5535C23.4067 20.5577 22.3528 20.5571 21.2975 20.5565C20.8229 20.5562 20.3481 20.5559 19.8727 20.556V14.7202C20.4037 14.7192 20.9373 14.7207 21.4723 14.7221C22.6248 14.7252 23.7834 14.7284 24.934 14.7075L24.945 14.7073L24.956 14.7066C25.4742 14.6743 26.0205 14.4903 26.4535 14.161C26.8076 13.8916 27.0986 13.513 27.2126 13.0373ZM23.1629 9.50339L23.653 9.40438L23.1722 9.54172C23.1963 9.62619 23.1753 9.71577 23.0935 9.79843C23.006 9.88692 22.8826 9.92875 22.7772 9.9138L22.7423 9.90885H22.707H21.5272C21.5268 9.86054 21.5262 9.81252 21.5257 9.76499C21.525 9.70168 21.5243 9.63924 21.5238 9.57815C21.523 9.47588 21.5227 9.37645 21.5236 9.27998C21.6243 9.27913 21.7242 9.27768 21.8221 9.27624C21.9031 9.27506 21.9829 9.27389 22.0608 9.27311C22.3789 9.2699 22.6793 9.27258 22.9715 9.29981C23.0735 9.33564 23.1466 9.42303 23.1629 9.50339ZM22.0014 12.6747H21.5259V11.909C21.6419 11.9084 21.7571 11.9071 21.8707 11.9058C21.959 11.9048 22.0464 11.9038 22.1323 11.9031C22.4852 11.9004 22.8242 11.9026 23.1568 11.9271C23.2619 11.9552 23.3612 12.055 23.3897 12.2316C23.4197 12.4173 23.3486 12.5479 23.2504 12.604C23.139 12.6625 22.9968 12.6851 22.7744 12.683C22.7228 12.6825 22.6574 12.6798 22.5838 12.6768C22.4092 12.6696 22.1892 12.6606 22.0014 12.6747Z" fill="url(#paint1_linear_1362_348)" stroke="black"/>
<path d="M11.4865 7.40031C11.1627 7.49088 10.8356 7.60916 10.5213 7.76534C10.5239 7.30903 10.522 6.85886 10.5201 6.41161C10.5167 5.59685 10.5133 4.79176 10.5375 3.97683C10.6533 2.58392 11.9825 1.40906 13.401 1.44208L13.401 1.44222H13.4127H17.8586C17.8573 3.43595 17.8582 5.42905 17.859 7.42184C17.859 7.48015 17.8591 7.53845 17.8591 7.59675L17.534 7.52004C15.5999 7.06373 13.5015 6.88538 11.4974 7.39739L11.4974 7.39726L11.4865 7.40031ZM17.8586 14.4028C17.8574 15.5721 17.8554 16.7414 17.852 17.9107C17.7926 19.3039 16.5162 20.5277 15.101 20.5546C14.0406 20.5585 12.9815 20.5579 11.9212 20.5573C11.4545 20.557 10.9876 20.5568 10.5203 20.5569V14.2304C11.6821 14.8157 13.0304 14.9059 14.1936 14.9079H14.1946C15.3321 14.9075 16.4533 14.7337 17.5339 14.4793L17.8586 14.4028ZM13.5283 9.32003C14.5635 8.99864 15.7367 9.23205 16.8135 9.69288C16.8203 9.69645 16.8276 9.70031 16.8354 9.70439C16.8811 9.72852 16.9411 9.76019 16.993 9.78448C17.0503 9.81132 17.1776 9.86964 17.3223 9.87788C17.404 9.88253 17.5299 9.87387 17.6566 9.7988C17.7497 9.74366 17.8156 9.66925 17.8598 9.59152C17.86 10.3273 17.8601 11.0631 17.86 11.7989L17.1977 12.1262C16.057 12.69 14.7882 13.0095 13.6347 12.714L13.6304 12.713C12.9395 12.5424 12.4258 11.8675 12.437 11.1552L12.4375 11.1241L12.4341 11.0932C12.3497 10.3172 12.8171 9.53341 13.5237 9.32143L13.5237 9.32145L13.5283 9.32003Z" fill="url(#paint2_linear_1362_348)" stroke="black"/>
<defs>
<linearGradient id="paint0_linear_1362_348" x1="0.490325" y1="11.1918" x2="8.86927" y2="11.1918" gradientUnits="userSpaceOnUse">
<stop stop-color="#0F6EB6"/>
<stop offset="1" stop-color="#006DBA"/>
</linearGradient>
<linearGradient id="paint1_linear_1362_348" x1="19.3158" y1="10.5688" x2="27.6595" y2="10.5688" gradientUnits="userSpaceOnUse">
<stop stop-color="#58B03A"/>
<stop offset="1" stop-color="#55B330"/>
</linearGradient>
<linearGradient id="paint2_linear_1362_348" x1="10.0081" y1="10.7645" x2="18.3574" y2="10.7645" gradientUnits="userSpaceOnUse">
<stop stop-color="#DE0D3D"/>
<stop offset="1" stop-color="#E30138"/>
</linearGradient>
</defs>
</svg>
