<svg width="37" height="22" viewBox="0 0 37 22" fill="none" xmlns="http://www.w3.org/2000/svg">
<path fill-rule="evenodd" clip-rule="evenodd" d="M18.385 18.8574C16.5154 20.422 14.0901 21.3665 11.4399 21.3665C5.52661 21.3665 0.73291 16.6639 0.73291 10.863C0.73291 5.06199 5.52661 0.359375 11.4399 0.359375C14.0901 0.359375 16.5154 1.30392 18.3851 2.86857C20.2547 1.30394 22.68 0.359406 25.3302 0.359406C31.2435 0.359406 36.0372 5.06202 36.0372 10.863C36.0372 16.664 31.2435 21.3666 25.3302 21.3666C22.68 21.3666 20.2547 20.422 18.385 18.8574Z" fill="#ED0006"/>
<path fill-rule="evenodd" clip-rule="evenodd" d="M18.385 18.8574C20.6872 16.9308 22.1469 14.0641 22.1469 10.863C22.1469 7.66179 20.6872 4.79509 18.385 2.86853C20.2547 1.30391 22.6799 0.359375 25.3301 0.359375C31.2434 0.359375 36.0371 5.06199 36.0371 10.863C36.0371 16.6639 31.2434 21.3665 25.3301 21.3665C22.6799 21.3665 20.2547 20.422 18.385 18.8574Z" fill="#F9A000"/>
<path fill-rule="evenodd" clip-rule="evenodd" d="M18.3852 18.8579C20.6873 16.9313 22.147 14.0647 22.147 10.8635C22.147 7.66237 20.6873 4.79569 18.3852 2.86914C16.083 4.79569 14.6233 7.66237 14.6233 10.8635C14.6233 14.0647 16.083 16.9313 18.3852 18.8579Z" fill="#FF5E00"/>
</svg>
