<svg width="18" height="18" viewBox="0 0 18 18" fill="none" xmlns="http://www.w3.org/2000/svg">
<path d="M5.25 2.68221e-07H3C2.20436 2.68221e-07 1.44129 0.316071 0.878685 0.878679C0.316076 1.44129 5.72204e-06 2.20435 5.72204e-06 3V5.25C5.72204e-06 6.04565 0.316076 6.80871 0.878685 7.37132C1.44129 7.93392 2.20436 8.24999 3 8.24999H5.25C6.04565 8.24999 6.80871 7.93392 7.37132 7.37132C7.93393 6.80871 8.25 6.04565 8.25 5.25V3C8.25 2.20435 7.93393 1.44129 7.37132 0.878679C6.80871 0.316071 6.04565 2.68221e-07 5.25 2.68221e-07ZM6.75 5.25C6.75 5.64782 6.59197 6.02935 6.31066 6.31066C6.02936 6.59196 5.64783 6.75 5.25 6.75H3C2.60218 6.75 2.22065 6.59196 1.93934 6.31066C1.65804 6.02935 1.50001 5.64782 1.50001 5.25V3C1.50001 2.60217 1.65804 2.22064 1.93934 1.93934C2.22065 1.65803 2.60218 1.5 3 1.5H5.25C5.64783 1.5 6.02936 1.65803 6.31066 1.93934C6.59197 2.22064 6.75 2.60217 6.75 3V5.25Z" fill="#E6007E"/>
<path d="M14.9999 0H12.7499C11.9542 0 11.1912 0.316071 10.6286 0.87868C10.066 1.44129 9.74989 2.20435 9.74989 3V5.25C9.74989 6.04565 10.066 6.80871 10.6286 7.37132C11.1912 7.93393 11.9542 8.25 12.7499 8.25H14.9999C15.7955 8.25 16.5586 7.93393 17.1212 7.37132C17.6838 6.80871 17.9999 6.04565 17.9999 5.25V3C17.9999 2.20435 17.6838 1.44129 17.1212 0.87868C16.5586 0.316071 15.7955 0 14.9999 0ZM16.4999 5.25C16.4999 5.64783 16.3418 6.02936 16.0605 6.31066C15.7792 6.59196 15.3977 6.75 14.9999 6.75H12.7499C12.3521 6.75 11.9705 6.59196 11.6892 6.31066C11.4079 6.02936 11.2499 5.64783 11.2499 5.25V3C11.2499 2.60218 11.4079 2.22064 11.6892 1.93934C11.9705 1.65804 12.3521 1.5 12.7499 1.5H14.9999C15.3977 1.5 15.7792 1.65804 16.0605 1.93934C16.3418 2.22064 16.4999 2.60218 16.4999 3V5.25Z" fill="#E6007E"/>
<path d="M5.25 9.74999H3C2.20435 9.74999 1.44129 10.0661 0.878679 10.6287C0.31607 11.1913 0 11.9543 0 12.75V15C0 15.7956 0.31607 16.5587 0.878679 17.1213C1.44129 17.6839 2.20435 18 3 18H5.25C6.04565 18 6.80871 17.6839 7.37132 17.1213C7.93393 16.5587 8.25 15.7956 8.25 15V12.75C8.25 11.9543 7.93393 11.1913 7.37132 10.6287C6.80871 10.0661 6.04565 9.74999 5.25 9.74999ZM6.75 15C6.75 15.3978 6.59196 15.7794 6.31066 16.0607C6.02935 16.342 5.64782 16.5 5.25 16.5H3C2.60217 16.5 2.22064 16.342 1.93934 16.0607C1.65803 15.7794 1.5 15.3978 1.5 15V12.75C1.5 12.3522 1.65803 11.9706 1.93934 11.6893C2.22064 11.408 2.60217 11.25 3 11.25H5.25C5.64782 11.25 6.02935 11.408 6.31066 11.6893C6.59196 11.9706 6.75 12.3522 6.75 12.75V15Z" fill="#E6007E"/>
<path d="M14.9999 9.74999H12.7499C11.9542 9.74999 11.1912 10.0661 10.6286 10.6287C10.066 11.1913 9.74989 11.9543 9.74989 12.75V15C9.74989 15.7956 10.066 16.5587 10.6286 17.1213C11.1912 17.6839 11.9542 18 12.7499 18H14.9999C15.7955 18 16.5586 17.6839 17.1212 17.1213C17.6838 16.5587 17.9999 15.7956 17.9999 15V12.75C17.9999 11.9543 17.6838 11.1913 17.1212 10.6287C16.5586 10.0661 15.7955 9.74999 14.9999 9.74999ZM16.4999 15C16.4999 15.3978 16.3418 15.7794 16.0605 16.0607C15.7792 16.342 15.3977 16.5 14.9999 16.5H12.7499C12.3521 16.5 11.9705 16.342 11.6892 16.0607C11.4079 15.7794 11.2499 15.3978 11.2499 15V12.75C11.2499 12.3522 11.4079 11.9706 11.6892 11.6893C11.9705 11.408 12.3521 11.25 12.7499 11.25H14.9999C15.3977 11.25 15.7792 11.408 16.0605 11.6893C16.3418 11.9706 16.4999 12.3522 16.4999 12.75V15Z" fill="#E6007E"/>
</svg>
