<svg width="104" height="104" viewBox="0 0 104 104" fill="none" xmlns="http://www.w3.org/2000/svg">
<path d="M52 102C79.6142 102 102 79.6142 102 52C102 24.3858 79.6142 2 52 2C24.3858 2 2 24.3858 2 52C2 79.6142 24.3858 102 52 102Z" fill="#E6007E"/>
<path d="M42 32L72 52L42 72V32Z" fill="#E6007E"/>
<path d="M52 102C79.6142 102 102 79.6142 102 52C102 24.3858 79.6142 2 52 2C24.3858 2 2 24.3858 2 52C2 79.6142 24.3858 102 52 102Z" stroke="white" stroke-width="4" stroke-linecap="round" stroke-linejoin="round"/>
<path d="M42 32L72 52L42 72V32Z" stroke="white" stroke-width="4" stroke-linecap="round" stroke-linejoin="round"/>
</svg>
