<svg width="23" height="17" viewBox="0 0 23 17" fill="none" xmlns="http://www.w3.org/2000/svg">
<path d="M22.6669 4.88977C22.5277 3.56366 22.2283 2.0977 21.1264 1.32731C20.273 0.729885 19.1512 0.707799 18.1039 0.709026C15.8901 0.709026 13.6751 0.712711 11.4614 0.713937C9.33208 0.716391 7.20279 0.717616 5.0735 0.72007C4.18402 0.72007 3.31938 0.652597 2.49325 1.03289C1.7839 1.3592 1.2286 1.97994 0.894422 2.67059C0.431047 3.63113 0.334152 4.71925 0.278249 5.78161C0.175139 7.71619 0.18632 9.65566 0.309307 11.589C0.399994 12.9998 0.629815 14.559 1.73421 15.4582C2.71314 16.2543 4.09457 16.2936 5.36419 16.2948C9.39419 16.2985 13.4254 16.3022 17.4567 16.3046C17.9735 16.3058 18.5126 16.296 19.0394 16.2396C20.0754 16.1292 21.063 15.836 21.7289 15.0779C22.401 14.3136 22.5737 13.25 22.6756 12.2429C22.924 9.79919 22.9215 7.33221 22.6669 4.88977ZM9.13083 11.9325V5.08114L15.1386 8.5062L9.13083 11.9325Z" fill="white"/>
</svg>
