<svg width="35" height="12" viewBox="0 0 35 12" fill="none" xmlns="http://www.w3.org/2000/svg">
<path fill-rule="evenodd" clip-rule="evenodd" d="M8.68108 11.0319H5.71263L3.48665 2.43855C3.38099 2.04325 3.15666 1.69379 2.82667 1.52909C2.00315 1.11518 1.09568 0.785764 0.105713 0.619627V0.288784H4.88765C5.54763 0.288784 6.04261 0.785764 6.12511 1.36295L7.28007 7.5616L10.2471 0.288784H13.133L8.68108 11.0319ZM14.783 11.0319H11.9795L14.288 0.288784H17.0914L14.783 11.0319ZM20.7184 3.26494C20.8009 2.68633 21.2959 2.35548 21.8734 2.35548C22.7809 2.27241 23.7694 2.43855 24.5944 2.85103L25.0893 0.537996C24.2644 0.207153 23.3569 0.0410156 22.5334 0.0410156C19.8124 0.0410156 17.8325 1.52909 17.8325 3.59435C17.8325 5.1655 19.2349 5.99046 20.2249 6.48744C21.2959 6.98299 21.7084 7.31383 21.6259 7.80938C21.6259 8.5527 20.8009 8.88354 19.9774 8.88354C18.9874 8.88354 17.9975 8.63577 17.0915 8.22186L16.5965 10.5363C17.5864 10.9488 18.6575 11.1149 19.6474 11.1149C22.6984 11.1966 24.5944 9.70993 24.5944 7.47853C24.5944 4.66852 20.7184 4.50381 20.7184 3.26494ZM34.4057 11.0319L32.1798 0.288784H29.7888C29.2938 0.288784 28.7988 0.619627 28.6338 1.11518L24.5119 11.0319H27.3978L27.9739 9.46215H31.5198L31.8498 11.0319H34.4057ZM30.2012 3.18188L31.0248 7.23077H28.7163L30.2012 3.18188Z" fill="#172B85"/>
</svg>
